<svg xmlns="http://www.w3.org/2000/svg" viewBox="0 0 717.6364 290.5656">
  <defs>
    <style>
      .cls-1 {
        fill: none;
        stroke: #fff;
        stroke-miterlimit: 10;
        stroke-width: 7px;
      }

      .cls-2 {
        fill: #fff;
      }
    </style>
  </defs>
  <title>LogoWhite</title>
  <g id="Layer_3" data-name="Layer 3">
    <rect class="cls-1" x="3.5" y="3.5" width="710.6364" height="283.5656"/>
  </g>
  <g id="Layer_2" data-name="Layer 2">
    <path class="cls-2" d="M257.3291,181.1626V399.0674h-41.87L133.4746,251.8818q.1509,5.59.3066,7.3433a89.0852,89.0852,0,0,1,.6143,9.4185V399.0674H96.18V181.1626h52.8936l71.2676,128.5083q-.9207-9.5786-.9209-14.5273V181.1626Z" transform="translate(-62.1268 -147.6653)"/>
    <path class="cls-2" d="M399.541,180.49V398.3965H363.3379l-70.8892-147.187q.13,5.59.2651,7.3438.5288,5.59.5313,9.4185V398.3965H260.2017V180.49H305.937L367.56,308.999q-.7961-9.5786-.7964-14.5273V180.49Z" transform="translate(-62.1268 -147.6653)"/>
    <path class="cls-2" d="M484.8955,397.6084,440.61,219.9307V397.6084h-35.24V179.7017h65.4731L502.3467,310.126l33.1406-130.4243h65.6768V397.6084H558.8232V219.9307L513.6738,397.6084Z" transform="translate(-62.1268 -147.6653)"/>
    <path class="cls-2" d="M745.3867,179.7017V397.6084H709.1826l-70.8887-147.187q.13,5.59.2656,7.3438.5288,5.59.53,9.4185V397.6084h-33.043V179.7017h45.7354l61.6221,128.5093q-.7954-9.5786-.7959-14.5273V179.7017Z" transform="translate(-62.1268 -147.6653)"/>
  </g>
</svg>
